# This file uses centimeters as units for non-parametric coordinates.

mtllib endgatebrick.mtl
g default
v 13.216589 0.317006 1.390875
v 15.998339 0.317006 1.390875
v 13.216589 9.966669 1.390875
v 15.998339 9.966669 1.390875
v 13.216589 9.966669 -1.390875
v 15.998339 9.966669 -1.390875
v 13.216589 0.317006 -1.390875
v 15.998339 0.317006 -1.390875
v 13.216589 10.596091 1.390875
v 15.998339 10.596091 1.390875
v 15.998339 10.596091 -1.390875
v 13.216589 10.596091 -1.390875
v 15.998339 10.596091 -0.463625
v 13.216589 10.596091 -0.463625
v 13.216589 9.966669 -0.463625
v 13.216589 0.317006 -0.463625
v 15.998339 0.317006 -0.463625
v 15.998339 9.966669 -0.463625
v 15.998339 10.596091 0.463625
v 13.216589 10.596091 0.463625
v 13.216589 9.966669 0.463625
v 13.216589 0.317006 0.463625
v 15.998339 0.317006 0.463625
v 15.998339 9.966669 0.463625
v 13.216589 1.509948 1.390875
v 13.216589 1.509945 0.463625
v 13.216589 1.509945 -0.463625
v 13.216589 1.509945 -1.390875
v 15.998339 1.509945 -1.390875
v 15.998339 1.509948 -0.463625
v 15.998339 1.509948 0.463625
v 15.998339 1.509948 1.390875
v 13.216589 8.860523 -1.390875
v 13.216589 8.860523 -0.463625
v 13.216589 8.860523 0.463625
v 13.216589 8.860523 1.390875
v 15.998339 8.860523 1.390875
v 15.998339 8.860523 0.463625
v 15.998339 8.860523 -0.463625
v 15.998339 8.860523 -1.390875
v 15.998339 1.509948 0.463625
v 15.998339 1.509948 1.390875
v 15.998339 8.860523 0.463625
v 15.998339 8.860523 1.390875
v 15.998339 8.860523 -0.463625
v 15.998339 1.509948 -0.463625
v 15.998339 8.860523 -1.390875
v 15.998339 1.509945 -1.390875
v 15.998339 8.860523 0.463625
v 15.998339 8.860523 -0.463625
v 15.998339 1.509948 0.463625
v 15.998339 1.509948 -0.463625
v 15.998339 1.509948 -0.463625
v 15.998339 1.509948 0.463625
v 15.998339 0.317006 0.463625
v 15.998339 0.317006 -0.463625
v 15.998339 8.860523 0.463625
v 15.998339 9.966669 0.463625
v 15.998339 8.860523 -0.463625
v 15.998339 9.966669 -0.463625
v 15.998339 8.860523 0.463625
v 15.998339 8.860523 -0.463625
v 15.998339 1.509948 0.463625
v 15.998339 1.509948 -0.463625
v 15.998339 8.860523 0.463625
v 15.998339 8.860523 -0.463625
v 15.998339 1.509948 0.463625
v 15.998339 1.509948 -0.463625
v 15.998339 1.509948 -0.463625
v 15.998339 1.509948 0.463625
v 15.998339 0.317006 0.463625
v 15.998339 0.317006 -0.463625
v 15.998339 8.860523 0.463625
v 15.998339 8.860523 -0.463625
v 15.998339 1.509948 0.463625
v 15.998339 1.509948 -0.463625
v 15.998339 8.860523 0.463625
v 15.998339 8.860523 -0.463625
v 15.998339 1.509948 0.463625
v 15.998339 1.509948 -0.463625
v 12.683081 9.845955 1.924382
v 12.680286 9.880308 1.965770
v 12.641693 9.880308 1.927178
v 16.573232 9.880308 1.927178
v 16.534366 9.880616 1.965770
v 16.531845 9.845955 1.924382
v 16.531845 10.716809 1.924382
v 16.534641 10.682457 1.965770
v 16.573232 10.682457 1.927178
v 12.641693 10.682457 1.927178
v 12.680558 10.682148 1.965770
v 12.683081 10.716809 1.924382
v 16.531980 9.845926 0.641506
v 16.573232 9.881065 0.655257
v 16.531845 9.845955 -1.924382
v 16.534641 9.880308 -1.965770
v 16.573232 9.880308 -1.927178
v 16.573232 10.682457 -1.927178
v 16.534366 10.682148 -1.965770
v 16.531845 10.716809 -1.924382
v 16.573232 10.681702 0.655257
v 16.531980 10.716841 0.641506
v 12.641693 9.880308 -1.927178
v 12.680558 9.880616 -1.965770
v 12.683081 9.845955 -1.924382
v 12.683081 10.716809 -1.924382
v 12.680286 10.682457 -1.965770
v 12.641693 10.682457 -1.927178
v 12.641693 9.881065 0.655257
v 12.682945 9.845926 0.641506
v 12.682947 10.716841 0.641506
v 12.641693 10.681702 0.655257
v 12.682947 10.716841 -0.641506
v 12.641693 10.681702 -0.655256
v 12.641693 9.881065 -0.655256
v 12.682945 9.845926 -0.641506
v 16.531980 9.845926 -0.641506
v 16.573232 9.881065 -0.655256
v 16.573232 10.681702 -0.655256
v 16.531980 10.716841 -0.641505
vt 0.375000 0.000000
vt 0.625000 0.000000
vt 0.375000 0.750000
vt 0.625000 0.750000
vt 0.375000 1.000000
vt 0.625000 1.000000
vt 0.875000 0.000000
vt 0.875000 0.250000
vt 0.125000 0.000000
vt 0.125000 0.250000
vt 0.208333 0.250000
vt 0.208333 0.000000
vt 0.375000 0.833333
vt 0.624992 0.833333
vt 0.791664 0.000030
vt 0.791667 0.250000
vt 0.291667 0.250000
vt 0.291667 0.000000
vt 0.375000 0.916667
vt 0.624994 0.916667
vt 0.708336 0.000028
vt 0.708333 0.250000
vt 0.375000 0.030906
vt 0.291667 0.030906
vt 0.208333 0.030906
vt 0.125000 0.030906
vt 0.375000 0.719094
vt 0.625000 0.719094
vt 0.875000 0.030906
vt 0.791667 0.030906
vt 0.708333 0.030906
vt 0.625000 0.030906
vt 0.125000 0.221342
vt 0.375000 0.528658
vt 0.208333 0.221342
vt 0.291667 0.221342
vt 0.375000 0.221342
vt 0.625000 0.221342
vt 0.708333 0.221342
vt 0.791667 0.221342
vt 0.625000 0.528658
vt 0.875000 0.221342
vt 0.625000 0.030906
vt 0.708333 0.030906
vt 0.708333 0.221342
vt 0.625000 0.221342
vt 0.791667 0.221342
vt 0.791667 0.030906
vt 0.875000 0.221342
vt 0.875000 0.030906
vt 0.791667 0.221342
vt 0.708333 0.221342
vt 0.708333 0.030906
vt 0.791667 0.030906
vt 0.791667 0.030906
vt 0.708333 0.030906
vt 0.708333 0.000000
vt 0.791667 0.000000
vt 0.708333 0.250000
vt 0.708333 0.221342
vt 0.791667 0.221342
vt 0.791667 0.250000
vt 0.791667 0.221342
vt 0.708333 0.221342
vt 0.708333 0.030906
vt 0.791667 0.030906
vt 0.791667 0.221342
vt 0.708333 0.221342
vt 0.708333 0.030906
vt 0.791667 0.030906
vt 0.791667 0.030906
vt 0.708333 0.030906
vt 0.708333 0.000000
vt 0.791667 0.000000
vt 0.791667 0.221342
vt 0.708333 0.221342
vt 0.708333 0.030906
vt 0.791667 0.030906
vt 0.791667 0.221342
vt 0.708333 0.221342
vt 0.708333 0.030906
vt 0.791667 0.030906
vt 0.377454 0.250000
vt 0.625000 0.252454
vt 0.625000 0.252454
vt 0.377471 0.250000
vt 0.622546 0.500000
vt 0.622529 0.500000
vt 0.375000 0.497546
vt 0.377454 0.500000
vt 0.375000 0.497546
vt 0.622529 0.250000
vt 0.622546 0.250000
vt 0.625000 0.333333
vt 0.377471 0.500000
vt 0.375000 0.252454
vt 0.375000 0.252454
vt 0.375000 0.333333
vt 0.625000 0.250000
vt 0.375000 0.250000
vt 0.375000 0.250000
vt 0.625000 0.250000
vt 0.625000 0.333333
vt 0.625000 0.250000
vt 0.625000 0.333333
vt 0.625000 0.250000
vt 0.375000 0.500000
vt 0.625000 0.500000
vt 0.625000 0.500000
vt 0.375000 0.500000
vt 0.375000 0.250000
vt 0.375000 0.333333
vt 0.375000 0.333333
vt 0.375000 0.250000
vt 0.375000 0.416667
vt 0.375000 0.500000
vt 0.375000 0.416667
vt 0.375000 0.416667
vt 0.375000 0.500000
vt 0.625000 0.416667
vt 0.625000 0.500000
vt 0.625000 0.416667
vt 0.625000 0.497546
vt 0.625000 0.497546
vt 0.625000 0.416667
vt 0.625000 0.500000
vt 0.375000 0.333333
vt 0.375000 0.416667
vt 0.375000 0.333333
vt 0.375000 0.416667
vt 0.375000 0.333333
vt 0.375000 0.416667
vt 0.625000 0.333333
vt 0.625000 0.416667
vt 0.625000 0.333333
vt 0.625000 0.416667
vt 0.625000 0.416667
vt 0.625000 0.333333
vt 0.000000 0.000000
vt 1.000000 0.000000
vt 0.999550 1.073129
vt 0.000339 1.072205
vn 0.000000 0.000000 1.000000
vn 0.000000 0.000000 1.000000
vn 0.000000 0.000000 1.000000
vn 0.000000 0.000000 1.000000
vn 0.032539 0.994694 -0.097601
vn -0.032539 0.994694 -0.097601
vn -0.042068 0.999115 0.000000
vn 0.042068 0.999115 0.000000
vn 0.000000 0.000000 -1.000000
vn 0.000000 0.000000 -1.000000
vn 0.000000 0.000000 -1.000000
vn 0.000000 0.000000 -1.000000
vn 0.000000 -1.000000 0.000000
vn 0.000000 -1.000000 0.000000
vn 0.000000 -1.000000 0.000000
vn 0.000000 -1.000000 0.000000
vn 1.000000 0.000000 0.000000
vn 1.000000 0.000000 0.000000
vn 1.000000 0.000000 0.000000
vn 1.000000 0.000000 0.000000
vn -1.000000 -0.000000 0.000000
vn -1.000000 0.000000 0.000000
vn -1.000000 0.000000 0.000000
vn -1.000000 -0.000000 0.000000
vn 0.042068 0.999115 -0.000000
vn -0.042068 0.999115 -0.000000
vn -0.032539 0.994694 0.097601
vn 0.032539 0.994694 0.097601
vn -1.000000 -0.000000 0.000000
vn -1.000000 -0.000000 0.000000
vn -1.000000 -0.000000 0.000000
vn -1.000000 -0.000000 0.000000
vn 0.000000 -1.000000 0.000000
vn 0.000000 -1.000000 0.000000
vn 0.000000 -1.000000 0.000000
vn 0.000000 -1.000000 0.000000
vn 1.000000 0.000000 0.000000
vn 1.000000 0.000000 0.000000
vn 1.000000 0.000000 0.000000
vn 1.000000 0.000000 0.000000
vn -1.000000 0.000000 0.000000
vn -1.000000 0.000000 0.000000
vn -1.000000 0.000000 0.000000
vn -1.000000 0.000000 0.000000
vn -1.000000 0.000000 0.000000
vn -1.000000 0.000000 0.000000
vn -1.000000 0.000000 0.000000
vn -1.000000 0.000000 0.000000
vn 0.000000 0.000000 -1.000000
vn 0.000000 0.000000 -1.000000
vn 0.000000 0.000000 -1.000000
vn 0.000000 0.000000 -1.000000
vn 1.000000 0.000000 0.000000
vn 1.000000 0.000000 0.000000
vn 1.000000 0.000000 0.000000
vn 1.000000 0.000000 0.000000
vn 1.000000 0.000000 0.000000
vn 1.000000 0.000000 0.000000
vn 1.000000 0.000000 0.000000
vn 1.000000 0.000000 0.000000
vn 1.000000 0.000000 0.000000
vn 1.000000 0.000000 0.000000
vn 1.000000 0.000000 0.000000
vn 1.000000 0.000000 0.000000
vn 0.000000 0.000000 1.000000
vn 0.000000 0.000000 1.000000
vn 0.000000 0.000000 1.000000
vn 0.000000 0.000000 1.000000
vn 1.000000 0.000000 0.000000
vn 1.000000 0.000000 0.000000
vn 1.000000 0.000000 0.000000
vn 1.000000 0.000000 0.000000
vn 1.000000 0.000000 0.000000
vn 1.000000 0.000000 0.000000
vn 1.000000 0.000000 0.000000
vn 1.000000 0.000000 0.000000
vn 1.000000 0.000000 0.000000
vn 1.000000 0.000000 0.000000
vn 1.000000 0.000000 0.000000
vn 1.000000 0.000000 0.000000
vn 0.000000 0.000000 0.000000
vn 0.000000 0.000000 0.000000
vn 0.000000 0.000000 0.000000
vn 0.000000 0.000000 0.000000
vn 0.000000 0.000000 0.000000
vn 0.000000 0.000000 0.000000
vn 0.000000 0.000000 0.000000
vn 0.000000 0.000000 0.000000
vn 0.000000 0.000000 0.000000
vn 0.000000 0.000000 0.000000
vn 0.000000 0.000000 0.000000
vn 0.000000 0.000000 0.000000
vn 0.000000 0.000000 0.000000
vn 0.000000 0.000000 0.000000
vn 0.000000 0.000000 0.000000
vn 0.000000 0.000000 0.000000
vn 0.000000 0.000000 0.000000
vn 0.000000 0.000000 0.000000
vn 0.000000 0.000000 0.000000
vn 0.000000 0.000000 0.000000
vn 0.000000 0.000000 0.000000
vn 0.000000 0.000000 0.000000
vn 0.000000 0.000000 0.000000
vn 0.000000 0.000000 0.000000
vn 0.000000 0.000000 0.000000
vn 0.000000 0.000000 0.000000
vn 0.000000 0.000000 0.000000
vn 0.000000 0.000000 0.000000
vn 0.000000 0.000000 0.000000
vn 0.000000 0.000000 0.000000
vn 0.000000 0.000000 0.000000
vn 0.000000 0.000000 0.000000
vn 0.000000 0.000000 0.000000
vn 0.000000 0.000000 0.000000
vn 0.000000 0.000000 0.000000
vn 0.000000 0.000000 0.000000
vn 0.000000 0.000000 0.000000
vn 0.000000 0.000000 0.000000
vn 0.000000 0.000000 0.000000
vn 0.000000 0.000000 0.000000
vn 0.000000 0.000000 0.000000
vn 0.000000 0.000000 0.000000
vn 0.000000 0.000000 0.000000
vn 0.000000 0.000000 0.000000
vn 0.000000 0.000000 0.000000
vn 0.000000 0.000000 0.000000
vn 0.000000 0.000000 0.000000
vn 0.000000 0.000000 0.000000
vn 0.000000 0.000000 0.000000
vn 0.000000 0.000000 0.000000
vn 0.000000 0.000000 0.000000
vn 0.000000 0.000000 0.000000
vn 0.000000 0.000000 0.000000
vn 0.000000 0.000000 0.000000
vn 0.000000 0.000000 0.000000
vn 0.000000 0.000000 0.000000
vn 0.000000 0.000000 0.000000
vn 0.000000 0.000000 0.000000
vn 0.000000 0.000000 0.000000
vn 0.000000 0.000000 0.000000
vn 0.000000 0.000000 0.000000
vn 0.000000 0.000000 0.000000
vn 0.000000 0.000000 0.000000
vn 0.000000 0.000000 0.000000
vn 0.000000 0.000000 0.000000
vn 0.000000 0.000000 0.000000
vn 0.000000 0.000000 0.000000
vn 0.000000 0.000000 0.000000
vn 0.000000 0.000000 0.000000
vn 0.000000 0.000000 0.000000
vn 0.000000 0.000000 0.000000
vn 0.000000 0.000000 0.000000
vn 0.000000 0.000000 0.000000
vn 0.000000 0.000000 0.000000
vn 0.000000 0.000000 0.000000
vn 0.000000 0.000000 0.000000
vn 0.000000 0.000000 0.000000
vn 0.000000 0.000000 0.000000
vn 0.000000 0.000000 0.000000
vn 0.000000 0.000000 0.000000
vn 0.000000 0.000000 0.000000
vn 0.000000 0.000000 0.000000
vn 0.000000 0.000000 0.000000
vn 0.000000 0.000000 0.000000
vn 0.000000 0.000000 0.000000
vn 0.000000 0.000000 0.000000
vn 0.000000 0.000000 0.000000
vn 0.000000 0.000000 0.000000
vn 0.000000 0.000000 0.000000
vn 0.000000 0.000000 0.000000
vn 0.000000 0.000000 0.000000
vn 0.000000 0.000000 0.000000
vn 0.000000 0.000000 0.000000
vn 0.000000 0.000000 0.000000
vn 0.000000 0.000000 0.000000
vn 0.000000 0.000000 0.000000
vn 0.000000 0.000000 0.000000
vn 0.000000 0.000000 0.000000
vn 0.000000 0.000000 0.000000
vn 0.000000 0.000000 0.000000
vn 0.000000 0.000000 0.000000
vn 0.000000 0.000000 0.000000
vn 0.000000 0.000000 0.000000
vn 0.000000 0.000000 0.000000
vn 0.000000 0.000000 0.000000
vn 0.000000 0.000000 0.000000
vn 0.000000 0.000000 0.000000
vn 0.000000 0.000000 0.000000
vn 0.000000 0.000000 0.000000
vn 0.000000 0.000000 0.000000
vn 0.000000 0.000000 0.000000
vn 0.000000 0.000000 0.000000
vn 0.000000 0.000000 0.000000
vn 0.000000 0.000000 0.000000
vn 0.000000 0.000000 0.000000
vn 0.000000 0.000000 0.000000
vn 0.000000 0.000000 0.000000
vn 0.000000 0.000000 0.000000
vn 0.000000 0.000000 0.000000
vn 0.000000 0.000000 0.000000
vn 0.000000 0.000000 0.000000
vn 0.000000 0.000000 0.000000
vn 0.000000 0.000000 0.000000
vn 0.000000 0.000000 0.000000
vn 0.000000 0.000000 0.000000
vn 0.000000 0.000000 0.000000
vn 0.000000 0.000000 0.000000
vn 0.000000 0.000000 0.000000
vn 0.000000 0.000000 0.000000
vn 0.000000 0.000000 0.000000
vn 0.000000 0.000000 0.000000
vn 0.000000 0.000000 0.000000
vn 0.000000 0.000000 0.000000
vn 0.000000 0.000000 0.000000
vn 0.000000 0.000000 0.000000
vn 0.000000 0.000000 0.000000
vn 0.000000 0.000000 0.000000
vn 0.000000 0.000000 0.000000
vn 0.000000 0.000000 0.000000
vn 0.000000 0.000000 0.000000
vn 0.000000 0.000000 0.000000
vn 0.000000 0.000000 0.000000
vn 0.000000 0.000000 0.000000
vn 0.000000 0.000000 0.000000
vn 0.000000 0.000000 0.000000
vn 0.000000 0.000000 0.000000
vn 0.000000 0.000000 0.000000
vn 0.000000 0.000000 0.000000
vn 0.000000 0.000000 0.000000
vn 0.000000 0.000000 0.000000
vn 0.000000 0.000000 0.000000
vn 0.000000 0.000000 0.000000
vn 0.000000 0.000000 0.000000
vn 0.000000 0.000000 0.000000
vn 0.000000 0.000000 0.000000
vn 0.000000 0.000000 0.000000
vn 0.000000 0.000000 0.000000
vn 0.000000 0.000000 0.000000
vn 0.000000 0.000000 0.000000
vn 0.000000 0.000000 0.000000
vn -0.643621 -0.765344 -0.000184
vn -0.643622 -0.765344 -0.000184
vn -0.645578 -0.763695 -0.000110
vn -0.646539 -0.762881 -0.000073
vn 0.000031 -0.768064 0.640372
vn 0.000031 -0.768064 0.640372
vn 0.000031 -0.768064 0.640373
vn 0.000031 -0.768064 0.640373
vn -0.705854 0.000120 0.708357
vn -0.705854 0.000120 0.708357
vn -0.705854 0.000120 0.708357
vn -0.705854 0.000120 0.708357
vn 0.643623 -0.765343 -0.000184
vn 0.643623 -0.765343 -0.000184
vn 0.646541 -0.762879 -0.000073
vn 0.645579 -0.763693 -0.000109
vn 0.705854 -0.000121 0.708358
vn 0.705854 -0.000121 0.708358
vn 0.705854 -0.000121 0.708358
vn 0.705854 -0.000121 0.708358
vn 0.643610 0.765353 -0.000183
vn 0.643610 0.765353 -0.000183
vn 0.645571 0.763700 -0.000109
vn 0.646535 0.762884 -0.000072
vn -0.000031 0.768072 0.640363
vn -0.000031 0.768072 0.640363
vn -0.000031 0.768072 0.640363
vn -0.000031 0.768072 0.640363
vn -0.643604 0.765359 -0.000183
vn -0.643604 0.765359 -0.000183
vn -0.646525 0.762892 -0.000072
vn -0.645563 0.763707 -0.000109
vn 0.646540 -0.762880 0.000073
vn 0.645579 -0.763694 0.000110
vn 0.643622 -0.765344 0.000184
vn 0.643622 -0.765344 0.000184
vn -0.000031 -0.768065 -0.640372
vn -0.000031 -0.768065 -0.640372
vn -0.000031 -0.768065 -0.640372
vn -0.000031 -0.768064 -0.640372
vn 0.705854 0.000121 -0.708357
vn 0.705854 0.000121 -0.708357
vn 0.705854 0.000121 -0.708357
vn 0.705854 0.000121 -0.708357
vn 0.643609 0.765355 0.000183
vn 0.643609 0.765355 0.000183
vn 0.646534 0.762885 0.000072
vn 0.645570 0.763701 0.000109
vn 0.000031 0.768076 -0.640359
vn 0.000031 0.768076 -0.640359
vn 0.000031 0.768076 -0.640359
vn 0.000031 0.768076 -0.640359
vn -0.643623 -0.765343 0.000184
vn -0.643623 -0.765343 0.000184
vn -0.646540 -0.762880 0.000073
vn -0.645579 -0.763694 0.000109
vn -0.705854 -0.000120 -0.708358
vn -0.705854 -0.000120 -0.708358
vn -0.705854 -0.000120 -0.708358
vn -0.705854 -0.000120 -0.708358
vn -0.643604 0.765359 0.000183
vn -0.643604 0.765359 0.000183
vn -0.645563 0.763707 0.000109
vn -0.646525 0.762892 0.000072
vn 0.000000 0.000000 1.000000
vn 0.000000 0.000000 1.000000
vn 0.000000 0.000000 1.000000
vn 0.000000 0.000000 1.000000
vn 1.000000 0.000000 0.000000
vn 1.000000 0.000000 0.000000
vn 1.000000 0.000000 0.000000
vn 1.000000 0.000000 0.000000
vn 0.000000 0.000000 -1.000000
vn 0.000000 0.000000 -1.000000
vn 0.000000 0.000000 -1.000000
vn 0.000000 0.000000 -1.000000
vn -1.000000 0.000000 0.000000
vn -1.000000 0.000000 0.000000
vn -1.000000 0.000000 0.000000
vn -1.000000 0.000000 0.000000
vn 0.055688 -0.984376 -0.167042
vn -0.055688 -0.984376 -0.167042
vn -0.055694 -0.984376 -0.167037
vn 0.055694 -0.984376 -0.167036
vn 0.055697 0.984376 -0.167041
vn -0.055696 0.984375 -0.167041
vn -0.220685 -0.975345 -0.000000
vn -0.220685 -0.975345 -0.000001
vn -0.220696 0.975343 0.000000
vn -0.055688 -0.984376 0.167042
vn 0.055688 -0.984376 0.167042
vn 0.055694 -0.984376 0.167036
vn -0.055694 -0.984376 0.167037
vn -0.055696 0.984375 0.167041
vn 0.055697 0.984376 0.167041
vn 0.220684 -0.975345 -0.000000
vn 0.220684 -0.975345 -0.000000
vn 0.220695 0.975343 0.000000
vn 0.220695 0.975343 -0.000000
vn -1.000000 0.000000 0.000000
vn -1.000000 0.000000 0.000000
vn -1.000000 0.000000 0.000000
vn -1.000000 0.000000 0.000000
vn 0.220684 -0.975345 0.000000
vn 0.220684 -0.975345 0.000000
vn -0.220685 -0.975345 0.000001
vn -0.220685 -0.975345 0.000000
vn 1.000000 0.000000 0.000000
vn 1.000000 0.000000 0.000000
vn 1.000000 0.000000 0.000000
vn 1.000000 0.000000 0.000000
vn -0.220696 0.975343 -0.000000
vn -0.523120 -0.672811 0.523135
vn -0.523120 -0.672811 0.523135
vn -0.523120 -0.672811 0.523135
vn 0.520380 -0.670027 0.529403
vn 0.520380 -0.670027 0.529403
vn 0.520380 -0.670027 0.529403
vn 0.523107 0.672844 0.523107
vn 0.523107 0.672844 0.523107
vn 0.523107 0.672844 0.523107
vn -0.520362 0.670043 0.529401
vn -0.520362 0.670043 0.529401
vn -0.520362 0.670043 0.529401
vn 0.523124 -0.672821 -0.523119
vn 0.523124 -0.672821 -0.523119
vn 0.523124 -0.672821 -0.523119
vn 0.520355 0.670039 -0.529413
vn 0.520355 0.670039 -0.529413
vn 0.520355 0.670039 -0.529413
vn -0.520382 -0.670024 -0.529405
vn -0.520382 -0.670024 -0.529405
vn -0.520382 -0.670024 -0.529405
vn -0.523103 0.672834 -0.523123
vn -0.523103 0.672834 -0.523123
vn -0.523104 0.672834 -0.523123
vn 1.000000 0.000000 0.000000
vn 1.000000 0.000000 0.000000
vn 1.000000 0.000000 0.000000
vn 1.000000 0.000000 0.000000
s 1
g pCube3
usemtl initialShadingGroup
f 1/1/1 2/2/2 32/32/3 25/23/4
s 2
f 9/101/5 10/106/6 19/138/7 20/113/8
s 3
f 28/27/9 29/28/10 8/4/11 7/3/12
s 4
f 22/19/13 23/20/14 2/6/15 1/5/16
s off
f 2/2/17 23/21/18 31/31/19 32/32/20
s 5
f 22/18/21 1/1/22 25/23/23 26/24/24
s 2
f 14/128/25 13/125/26 11/109/27 12/116/28
s 5
f 7/9/29 16/12/30 27/25/31 28/26/32
s 4
f 7/3/33 8/4/34 17/14/35 16/13/36
s off
f 29/29/37 30/30/38 17/15/39 8/7/40
s 2
f 20/113/8 19/138/7 13/125/26 14/128/25
s 5
f 16/12/30 22/18/21 26/24/24 27/25/31
s 4
f 16/13/36 17/14/35 23/20/14 22/19/13
s 5
f 35/36/41 36/37/42 3/111/43 21/17/44
f 34/35/45 35/36/41 21/17/44 15/11/46
f 33/33/47 34/35/45 15/11/46 5/10/48
s 3
f 5/107/49 6/121/50 40/41/51 33/34/52
s off
f 18/16/53 39/40/54 40/42/55 6/8/56
f 58/59/57 57/60/58 59/61/59 60/62/60
f 37/38/61 38/39/62 24/22/63 4/99/64
s 1
f 36/37/65 37/38/66 4/99/67 3/111/68
s 5
f 28/26/32 27/25/31 34/35/45 33/33/47
f 27/25/31 26/24/24 35/36/41 34/35/45
f 26/24/24 25/23/23 36/37/42 35/36/41
s 1
f 25/23/4 32/32/3 37/38/66 36/37/65
s off
f 42/43/69 41/44/70 43/45/71 44/46/72
f 78/79/73 77/80/74 79/81/75 80/82/76
f 47/49/77 45/47/78 46/48/79 48/50/80
s 3
f 33/34/52 40/41/51 29/28/10 28/27/9
s off
f 32/32/81 31/31/82 41/44/83 42/43/84
f 38/39/85 37/38/86 44/46/87 43/45/88
f 37/38/89 32/32/90 42/43/91 44/46/92
f 39/40/93 38/39/94 43/45/95 45/47/96
f 31/31/97 30/30/98 46/48/99 41/44/100
f 40/42/101 39/40/102 45/47/103 47/49/104
f 30/30/105 29/29/106 48/50/107 46/48/108
f 29/29/109 40/42/110 47/49/111 48/50/112
f 45/47/113 43/45/114 49/52/115 50/51/116
f 43/45/117 41/44/118 51/53/119 49/52/120
f 41/44/121 46/48/122 52/54/123 51/53/124
f 46/48/125 45/47/126 50/51/127 52/54/128
f 30/30/129 31/31/130 54/56/131 53/55/132
f 31/31/133 23/21/134 55/57/135 54/56/136
f 23/21/137 17/15/138 56/58/139 55/57/140
f 17/15/141 30/30/142 53/55/143 56/58/144
f 24/22/145 38/39/146 57/60/147 58/59/148
f 38/39/149 39/40/150 59/61/151 57/60/152
f 39/40/153 18/16/154 60/62/155 59/61/156
f 18/16/157 24/22/158 58/59/159 60/62/160
f 50/51/161 49/52/162 61/64/163 62/63/164
f 49/52/165 51/53/166 63/65/167 61/64/168
f 51/53/169 52/54/170 64/66/171 63/65/172
f 52/54/173 50/51/174 62/63/175 64/66/176
f 62/63/177 61/64/178 65/68/179 66/67/180
f 61/64/181 63/65/182 67/69/183 65/68/184
f 63/65/185 64/66/186 68/70/187 67/69/188
f 64/66/189 62/63/190 66/67/191 68/70/192
f 53/55/193 54/56/194 70/72/195 69/71/196
f 54/56/197 55/57/198 71/73/199 70/72/200
f 55/57/201 56/58/202 72/74/203 71/73/204
f 56/58/205 53/55/206 69/71/207 72/74/208
f 66/67/209 65/68/210 73/76/211 74/75/212
f 65/68/213 67/69/214 75/77/215 73/76/216
f 67/69/217 68/70/218 76/78/219 75/77/220
f 68/70/221 66/67/222 74/75/223 76/78/224
f 74/75/225 73/76/226 77/80/227 78/79/228
f 73/76/229 75/77/230 79/81/231 77/80/232
f 75/77/233 76/78/234 80/82/235 79/81/236
f 76/78/237 74/75/238 78/79/239 80/82/240
s 6
f 81/100/241 83/96/242 109/129/243 110/112/244
s off
f 82/83/245 81/100/246 86/104/247 85/92/248
f 83/96/249 82/83/250 91/86/251 90/97/252
s 7
f 84/84/253 86/104/254 93/133/255 94/94/256
s off
f 85/92/257 84/84/258 89/85/259 88/93/260
s 8
f 87/102/261 89/85/262 101/135/263 102/105/264
s off
f 88/93/265 87/102/266 92/114/267 91/86/268
s 9
f 90/97/269 92/114/270 111/127/271 112/98/272
s 7
f 94/94/256 93/133/255 117/120/273 118/136/274
f 95/108/275 97/123/276 118/136/274 117/120/273
s off
f 96/87/277 95/108/278 105/119/279 104/95/280
f 97/123/281 96/87/282 99/88/283 98/124/284
s 8
f 98/124/285 100/126/286 120/137/287 119/122/288
s off
f 100/126/289 99/88/290 107/90/291 106/110/292
s 8
f 102/105/264 101/135/263 119/122/288 120/137/287
s 6
f 103/89/293 105/119/294 116/132/295 115/117/296
s off
f 104/95/297 103/89/298 108/91/299 107/90/300
s 9
f 106/110/301 108/91/302 114/130/303 113/115/304
s 6
f 110/112/244 109/129/243 115/117/296 116/132/295
s 9
f 112/98/272 111/127/271 113/115/304 114/130/303
s off
f 82/83/305 85/92/306 88/93/307 91/86/308
s 10
f 84/84/309 94/94/310 101/135/311 89/85/312
s off
f 96/87/313 104/95/314 107/90/315 99/88/316
s 11
f 109/129/317 83/96/318 90/97/319 112/98/320
s 12
f 3/111/321 4/99/322 86/104/323 81/100/324
s 2
f 10/106/6 9/101/5 92/114/325 87/102/326
s 12
f 4/99/322 24/103/327 93/133/328 86/104/323
s 2
f 102/105/329 19/138/7 10/106/6 87/102/326
s 12
f 6/121/330 5/107/331 105/119/332 95/108/333
s 2
f 12/116/28 11/109/27 100/126/334 106/110/335
s 12
f 21/131/336 3/111/321 81/100/324 110/112/337
s 2
f 9/101/5 20/113/8 111/127/338 92/114/325
f 113/115/339 14/128/25 12/116/28 106/110/335
s 11
f 103/89/340 115/117/341 114/130/342 108/91/343
s 12
f 5/107/331 15/118/344 116/132/345 105/119/332
f 117/120/346 18/134/347 6/121/330 95/108/333
s 10
f 119/122/348 118/136/349 97/123/350 98/124/351
s 2
f 11/109/27 13/125/26 120/137/352 100/126/334
f 111/127/338 20/113/8 14/128/25 113/115/339
s 11
f 115/117/341 109/129/317 112/98/320 114/130/342
s 12
f 15/118/344 21/131/336 110/112/337 116/132/345
f 93/133/328 24/103/327 18/134/347 117/120/346
s 10
f 101/135/311 94/94/310 118/136/349 119/122/348
s 2
f 120/137/352 13/125/26 19/138/7 102/105/329
s off
f 81/100/353 82/83/354 83/96/355
f 84/84/356 85/92/357 86/104/358
f 87/102/359 88/93/360 89/85/361
f 90/97/362 91/86/363 92/114/364
f 95/108/365 96/87/366 97/123/367
f 98/124/368 99/88/369 100/126/370
f 103/89/371 104/95/372 105/119/373
f 106/110/374 107/90/375 108/91/376
f 30/139/377 31/140/378 23/141/379 17/142/380
